<svg xmlns="http://www.w3.org/2000/svg" viewBox="0 0 32 32"><path d="M16 8.7c-4.1 0-7.3 3.3-7.3 7.3s3.3 7.3 7.3 7.3 7.3-3.3 7.3-7.3S20 8.7 16 8.7zm0 12.8c-3 0-5.5-2.5-5.5-5.5s2.5-5.5 5.5-5.5 5.5 2.5 5.5 5.5-2.5 5.5-5.5 5.5zM15.1 5h1.8v2.8h-1.8V5zM7.6 8.9l1.3-1.3 1.9 1.9-1.3 1.3-1.9-1.9zM5 15.1h2.8v1.8H5v-1.8zM7.6 23.1l1.9-1.9 1.3 1.3-1.9 1.9-1.3-1.3zM15.1 24.2h1.8V27h-1.8v-2.8zM21.2 22.5l1.3-1.3 1.9 1.9-1.3 1.3-1.9-1.9zM24.3 15.1H27v1.8h-2.8v-1.8zM21.2 9.5l1.9-1.9 1.3 1.3-1.9 1.9-1.3-1.3z"/></svg>